<svg width="88" height="24" viewBox="0 0 88 24" fill="none" xmlns="http://www.w3.org/2000/svg">
<g clip-path="url(#clip0_1_212)">
<path d="M44 0C37.3719 0 32 5.37188 32 12C32 18.6281 37.3719 24 44 24C50.6281 24 56 18.6281 56 12C56 5.37188 50.6281 0 44 0ZM46.6484 9.96563L46.5125 11.7609H44.6703V17.9953H42.3453V11.7609H41.1031V9.96563H42.3453V8.76094C42.3453 8.23125 42.3594 7.41094 42.7437 6.9C43.1516 6.36094 43.7094 5.99531 44.6703 5.99531C46.2359 5.99531 46.8922 6.22031 46.8922 6.22031L46.5828 8.05781C46.5828 8.05781 46.0672 7.90781 45.5844 7.90781C45.1016 7.90781 44.6703 8.08125 44.6703 8.56406V9.96563H46.6484Z" fill="#E66767"/>
</g>
<g clip-path="url(#clip1_1_212)">
<path d="M12 14.1094C13.1625 14.1094 14.1141 13.1625 14.1141 11.9953C14.1141 11.5359 13.9641 11.1094 13.7156 10.7625C13.3312 10.2328 12.7078 9.88123 12.0047 9.88123C11.3016 9.88123 10.6781 10.2281 10.2937 10.7625C10.0453 11.1094 9.89531 11.5359 9.89531 11.9953C9.89062 13.1625 10.8375 14.1094 12 14.1094Z" fill="#E66767"/>
<path d="M16.6125 9.41719V7.64531V7.38281H16.35L14.5781 7.3875L14.5875 9.42188L16.6125 9.41719Z" fill="#E66767"/>
<path d="M15.2812 12C15.2812 13.8094 13.8094 15.2813 12 15.2813C10.1906 15.2813 8.71875 13.8094 8.71875 12C8.71875 11.5641 8.80781 11.1469 8.9625 10.7672H7.17188V15.6797C7.17188 16.3125 7.6875 16.8281 8.32031 16.8281H15.6797C16.3125 16.8281 16.8281 16.3125 16.8281 15.6797V10.7672H15.0375C15.1969 11.1469 15.2812 11.5641 15.2812 12Z" fill="#E66767"/>
<path d="M12 0C5.37188 0 0 5.37188 0 12C0 18.6281 5.37188 24 12 24C18.6281 24 24 18.6281 24 12C24 5.37188 18.6281 0 12 0ZM18 10.7672V15.6797C18 16.9594 16.9594 18 15.6797 18H8.32031C7.04063 18 6 16.9594 6 15.6797V10.7672V8.31562C6 7.03594 7.04063 5.99531 8.32031 5.99531H15.6797C16.9594 5.99531 18 7.03594 18 8.31562V10.7672Z" fill="#E66767"/>
</g>
<g clip-path="url(#clip2_1_212)">
<path d="M76 0C69.3726 0 64 5.37258 64 12C64 18.6274 69.3726 24 76 24C82.6274 24 88 18.6274 88 12C88 5.37258 82.6274 0 76 0ZM76.2309 10.1902C76.2348 10.1904 76.2386 10.1912 76.2426 10.1914C76.2016 10.0155 76.1804 9.83212 76.1804 9.64378C76.1804 8.31689 77.2562 7.24106 78.5833 7.24106C79.2743 7.24106 79.8987 7.53286 80.3371 7.99988C80.7871 7.91128 81.2129 7.75734 81.6087 7.55348C81.6922 7.51298 81.7759 7.47272 81.8581 7.42814C81.7157 7.86567 81.4482 8.24433 81.1015 8.5312C81.0076 8.60508 80.9111 8.67642 80.805 8.73483C80.8122 8.73398 80.8192 8.73239 80.8264 8.7315C80.8194 8.73586 80.8135 8.74181 80.8063 8.74613C81.2002 8.69902 81.5778 8.60311 81.9365 8.46759C82.0169 8.43984 82.0972 8.41177 82.1769 8.38078C81.8561 8.85698 81.4525 9.27586 80.9874 9.61167C80.992 9.71466 80.9943 9.8182 80.9943 9.9225C80.9943 13.0976 78.5776 16.7588 74.1579 16.7588C72.801 16.7588 71.538 16.3612 70.4747 15.6794C70.6626 15.7016 70.854 15.7129 71.0479 15.7129C71.9449 15.7129 72.7829 15.4659 73.5033 15.0407C73.6848 14.9362 73.8623 14.8233 74.0318 14.6955C74.0272 14.6954 74.023 14.6943 74.0184 14.6942C74.0228 14.6908 74.0276 14.6878 74.032 14.6844C73.1215 14.6676 72.3358 14.1435 71.9425 13.3837C71.884 13.2671 71.8338 13.1449 71.7942 13.0167C71.9389 13.0439 72.087 13.0588 72.2395 13.0588C72.3985 13.0588 72.552 13.0383 72.7022 13.0089C72.7584 13.0011 72.815 12.9945 72.8703 12.9854C72.863 12.9839 72.8566 12.9807 72.8493 12.9792C72.8569 12.9772 72.865 12.9765 72.8725 12.9745C71.7734 12.7537 70.9451 11.7825 70.9451 10.6185C70.9451 10.6093 70.9452 10.6003 70.9453 10.5913L70.9464 10.5887C71.2052 10.7323 71.4945 10.8274 71.8009 10.8671C71.8764 10.8797 71.9519 10.8913 72.0274 10.8979C72.0223 10.8945 72.0178 10.8902 72.0127 10.8868C72.0198 10.887 72.0266 10.8885 72.0337 10.8887C71.389 10.4579 70.9648 9.7223 70.9648 8.88872C70.9648 8.50706 71.058 8.1487 71.2164 7.82827C71.2416 7.78008 71.2641 7.73086 71.2931 7.68417C72.3577 8.98833 73.8954 9.88594 75.6431 10.1287C75.8381 10.1571 76.0337 10.1823 76.2316 10.1938C76.2313 10.1926 76.2312 10.1914 76.2309 10.1902Z" fill="#E66767"/>
</g>
<defs>
<clipPath id="clip0_1_212">
<rect width="24" height="24" fill="white" transform="translate(32)"/>
</clipPath>
<clipPath id="clip1_1_212">
<rect width="24" height="24" fill="white"/>
</clipPath>
<clipPath id="clip2_1_212">
<rect width="24" height="24" fill="white" transform="translate(64)"/>
</clipPath>
</defs>
</svg>
